<svg viewBox="0 0 53 120" fill="none" xmlns="http://www.w3.org/2000/svg" class="opo-navbar-nelke">
<g>
    <path d="M39.9428 0C44.1913 1.17429 46.777 4.40914 49.2355 7.62171C51.123 10.0869 51.022 12.9703 49.6935 15.7954C48.7219 17.8611 47.4299 19.7126 45.7984 21.2846C43.7003 23.3057 41.2139 24.792 38.4472 25.8C37.9683 25.9749 37.2423 26.28 37.0263 26.0057C36.739 25.6406 37.3903 25.2206 37.6166 24.8109C38.8877 22.5171 39.8401 20.1411 40.1605 17.496C40.4739 14.904 40.1187 12.528 38.7101 10.3166C37.3485 8.17714 35.266 7.13143 32.8527 6.63257C31.8672 6.42857 30.8538 6.35143 29.7726 6.20571C29.8857 7.11943 30.8138 7.37143 31.1202 8.11372C30.3158 8.34686 29.5584 8.08629 28.8671 7.96457C27.4098 7.70743 26.0447 7.96629 24.6813 8.316C20.9848 9.26057 18.5907 11.7754 16.8007 14.9126C15.258 17.616 14.3509 20.5526 13.8929 23.8354C13.1059 22.5 12.6776 21.2263 12.1639 19.9886C11.1488 17.5491 10.8929 14.9931 11.1331 12.4149C11.3125 10.4846 11.4466 8.52 12.3555 6.71486C13.2818 4.87371 14.814 3.69086 16.7641 3.36857C19.7538 2.87486 22.7869 2.91943 25.7382 3.82286C26.7394 4.12971 27.6588 4.58743 28.4249 5.30229C28.8045 5.65714 29.0204 5.68286 29.3599 5.18057C30.4621 3.55029 31.8045 2.136 33.4813 1.03714C34.2788 0.514286 35.226 0.414857 36.053 0H39.9463L39.9428 0Z" />
    <path d="M49.1833 19.74C49.7666 21.7063 50.0817 23.5149 50.0469 25.3954C49.9947 28.2086 48.896 30.6051 47.3411 32.8817C44.9505 36.3823 41.3357 37.74 37.3693 38.4926C35.6751 38.8149 33.9723 39.0943 32.2676 39.3531C31.8254 39.42 31.8027 39.4937 31.8933 39.936C32.0709 40.8 32.0744 41.6983 32.1614 42.5811C32.191 42.8829 32.0256 43.2274 32.4017 43.5034C32.9171 42.7046 33.2479 41.7909 33.9862 41.1326C35.1981 40.0526 36.6067 39.4286 38.2173 39.1903C42.7792 38.5149 46.8118 39.984 50.6302 42.2074C51.412 42.6617 52.1642 43.236 52.8049 43.9131C53.0783 44.2011 53.08 44.376 52.7457 44.5869C50.1636 46.2223 47.6719 48.0137 44.9121 49.356C43.218 50.1806 41.4611 50.9091 39.5319 51.0377C37.1203 51.1989 34.8759 50.7514 32.837 49.0337C32.9972 50.7446 33.1974 52.2617 33.2619 53.7823C33.3071 54.8503 33.8469 55.2411 34.8115 55.608C37.0246 56.4514 38.1006 58.3526 38.872 60.4337C39.5684 62.3126 40.3851 64.1606 40.7002 66.1509C40.9126 67.4931 41.4019 68.8166 40.8517 70.2206C40.2127 71.8526 38.7222 72.5006 37.2631 72.264C35.1598 71.9246 33.4168 70.8686 31.8358 69.4766C30.8782 68.6331 30.0581 67.7023 29.3842 66.6429C29.1927 66.3411 29.0673 66.3909 28.7713 66.4577C28.0435 66.6223 27.3436 66.9189 26.5722 66.9137C29.8526 73.4057 27.9895 79.548 25.3151 85.6491C26.4834 84.2743 27.2809 82.6886 28.0366 81.0926C28.592 79.92 29.0586 78.7029 29.4852 77.4771C29.7238 76.788 29.9797 76.9834 30.2984 77.3486C31.6373 78.8863 32.3913 80.6931 32.8753 82.644C33.5074 85.1931 33.3994 87.78 33.3872 90.3634C33.3855 90.8023 33.4691 91.0269 33.9357 91.2257C36.8539 92.4754 39.7443 93.7886 42.6521 95.0623C43.0874 95.2526 43.4252 95.3554 42.9655 95.892C41.0537 98.1154 38.9033 100.015 36.1644 101.234C33.9862 102.204 31.7261 102.737 29.3599 102.967C28.5763 103.042 27.798 103.152 27.0093 103.119C26.7254 103.107 26.5478 103.269 26.4399 103.461C26.1056 104.057 25.5641 104.462 25.0957 104.931C21.6151 108.429 18.0805 111.876 14.6625 115.43C13.3496 116.794 12.002 118.121 10.6804 119.474C9.95955 120.211 9.90383 120.197 9.54341 119.222C8.77903 117.158 8.04076 115.083 7.27638 113.018C5.2775 107.618 3.26817 102.221 1.26755 96.8211C0.875779 95.7634 0.532765 94.6834 0.0922447 93.6463C-0.0644622 93.276 -0.0157089 93.084 0.236763 92.8217C2.21475 90.7731 4.21189 88.7417 6.13765 86.6469C7.10226 85.5977 8.11215 84.5966 9.10115 83.5697C9.78543 82.86 9.69837 81.8691 9.84289 81C10.3235 78.0891 10.7205 75.1663 11.2498 72.2606C11.8644 68.8886 12.7211 65.5937 13.7223 62.3143C14.5946 59.4583 16.5482 57.8829 19.261 56.9606C21.7039 56.1291 24.1833 55.4246 26.7446 55.0594C27.7231 54.9206 28.7208 54.888 29.7116 54.8829C30.2392 54.8811 30.4533 54.7731 30.4011 54.2143C30.2531 52.6166 30.1469 51.0154 30.0198 49.3749C27.4132 52.068 24.2007 52.5274 20.7131 51.8366C17.9986 51.2983 15.4774 50.2063 13.0049 49.0046C11.9497 48.492 10.8737 48.0206 9.80285 47.5406C9.37451 47.3486 9.26308 47.2114 9.6531 46.7811C12.8064 43.3046 16.6823 41.0057 21.3487 40.3029C24.0127 39.9017 26.7237 40.14 28.747 42.36C28.8654 42.4886 29.0047 42.6017 29.1039 42.7423C29.1962 42.8743 29.1892 43.08 29.4661 43.1109C29.6576 41.9383 29.1962 40.7931 29.3181 39.6291C29.3512 39.3206 29.0743 39.3703 28.8776 39.3634C26.466 39.2846 24.192 38.592 21.7665 37.8566C22.9523 37.1794 24.0318 36.5794 25.0974 35.9537C27.2112 34.7126 29.191 33.2571 30.5282 31.2189C31.1846 30.2177 31.8811 29.7411 33.0042 29.3931C37.5173 27.9943 41.5255 25.62 45.3022 22.8531C46.6185 21.8897 47.9801 20.9829 49.185 19.7349L49.1833 19.74Z" />
    <path d="M38.7379 17.7291C38.6735 20.5577 37.8569 22.8034 36.1331 24.7646C33.8974 27.3069 31.0663 28.8651 27.8033 29.5457C24.3766 30.2606 21.1554 29.7051 18.6464 27.0154C16.4821 24.6943 15.6272 21.9806 16.1965 18.8314C16.3167 18.1629 16.4803 17.5029 16.59 16.8326C16.6858 16.2463 16.9522 16.0766 17.5303 16.3783C19.5326 17.4291 21.5646 18.3926 23.7568 19.0371C27.5421 20.1514 31.0541 19.5909 34.4564 17.7154C35.6943 17.0331 36.8191 16.2103 37.9701 15.4183C38.3305 15.1714 38.5203 15.1834 38.5133 15.6017C38.5011 16.4091 38.8772 17.1823 38.7379 17.7274V17.7291Z" />
    <path d="M10.3496 14.4343C10.71 16.6423 10.9242 18.7714 11.4448 20.8509C11.6816 21.7937 12.0403 22.68 12.5244 23.5131C12.9457 24.2383 13.6265 24.6017 14.4797 24.5571C14.9046 24.5349 15.11 24.6806 15.3538 25.0423C17.2273 27.8126 19.5483 30.072 22.9488 30.9086C25.0766 31.4314 27.2357 31.7949 29.4539 31.176C29.4539 31.3149 29.4887 31.4229 29.4487 31.4657C27.3767 33.7594 25.0574 35.676 21.8919 36.3326C19.1391 36.9034 16.496 36.4834 13.8964 35.5474C10.8197 34.4383 8.37685 32.6109 6.95778 29.6331C6.45284 28.5754 6.24215 27.4474 6.12201 26.2766C5.90785 24.2057 6.12549 22.2069 6.65656 20.2046C7.26249 17.9263 8.54923 16.1023 10.3461 14.4377L10.3496 14.4343Z" />
    <path d="M46.3121 75.7954C47.8652 75.7149 49.2756 75.8109 50.3847 76.7674C51.7899 77.9777 51.9657 79.6354 51.7185 81.3326C51.4277 83.3211 50.0156 84.2366 48.1752 84.66C46.3382 85.0834 44.4577 85.1794 42.5894 85.368C40.6323 85.5651 38.684 85.8377 36.7269 86.04C36.0844 86.1069 35.4297 86.0743 34.782 86.0503C34.2474 86.0297 34.1255 85.5789 34.1186 85.1966C34.082 83.1549 33.4343 81.2349 32.9398 79.2874C32.8423 78.9017 32.9311 78.5109 32.7395 78.1149C32.5741 77.7703 33.1191 77.8097 33.2898 77.772C34.8586 77.424 36.4378 77.1189 38.0206 76.8326C39.8331 76.5034 41.6666 76.2909 43.4861 76.0063C44.4473 75.8554 45.4432 75.5931 46.3104 75.7989L46.3121 75.7954Z" />
    <path d="M26.7028 18.4766C23.9117 18.516 21.4288 17.3914 19.2175 15.5674C18.8849 15.2931 18.582 14.9623 18.2059 14.7634C17.4571 14.3674 17.8158 13.9766 18.131 13.548C19.4317 11.7789 21.2825 10.7811 23.2536 9.91714C25.0209 9.14229 26.9048 8.81314 28.7818 8.75657C30.8521 8.69486 32.9137 9.06343 34.7541 10.152C36.1227 10.9629 37.1639 12.0669 37.9666 13.4314C38.1877 13.8069 37.9718 13.9029 37.8064 14.0246C35.1215 15.996 32.3338 17.7446 28.9368 18.3154C28.2351 18.4337 27.5491 18.4337 26.7011 18.4766H26.7028Z" />
    <path d="M46.3539 65.8491C47.3411 65.8731 48.3388 65.7583 49.3 66.0909C50.8775 66.636 51.6105 67.8531 51.769 69.3754C51.917 70.7966 51.7272 72.2023 50.9315 73.476C50.5536 74.0811 49.9843 74.3743 49.347 74.5543C47.7016 75.0223 45.976 74.9691 44.2993 75.2503C42.4832 75.5554 40.655 75.7989 38.832 76.0697C36.8122 76.3697 34.7941 76.6714 32.7744 76.9697C32.4087 77.0229 32.3722 76.7057 32.259 76.4897C31.1237 74.3263 29.9867 72.1663 28.8706 69.9943C28.754 69.7663 28.4249 69.4714 28.7087 69.2383C28.9438 69.0463 29.3582 69.0823 29.6385 69.2263C30.3733 69.6069 31.0802 70.0389 31.7941 70.4589C33.093 71.2234 34.1029 72.42 35.6247 72.8571C37.2788 73.3337 38.8633 73.38 40.305 72.2931C41.2696 71.5663 41.7815 70.5823 41.8912 69.3926C41.9765 68.4686 41.8251 67.5566 41.6596 66.6583C41.5987 66.3274 41.5343 66.2503 41.9278 66.1869C43.3956 65.9503 44.8669 65.8166 46.3539 65.8491Z" />
    <path d="M46.1119 85.884C47.268 85.8291 48.6052 85.9303 49.8589 86.5766C51.5183 87.4337 51.9936 89.412 51.7551 90.8229C51.2066 94.0851 48.5913 95.1566 45.7897 95.4669C45.3928 95.5114 45.0619 95.3623 44.712 95.2063C41.6092 93.8143 38.5081 92.4154 35.3844 91.068C34.5835 90.7217 34.1133 90.3206 34.2648 89.376C34.3606 88.7811 34.2962 88.1606 34.2788 87.552C34.2666 87.108 34.4598 86.964 34.9038 86.9194C36.3107 86.7789 37.7089 86.5029 39.1193 86.4326C41.3863 86.3194 43.6167 85.8223 46.1136 85.8857L46.1119 85.884Z" />
    <path d="M37.3206 56.3057C40.4826 56.028 43.4304 55.4606 46.4322 55.5823C47.867 55.6406 49.1781 56.1257 50.3238 56.9983C51.8351 58.1486 51.9553 59.7531 51.7202 61.4246C51.6784 61.7194 51.6593 62.04 51.5653 62.3434C51.0742 63.9274 49.9825 64.8291 48.2413 64.9714C46.0492 65.1514 43.8535 65.3074 41.6753 65.628C41.2992 65.6829 41.4019 65.4737 41.3549 65.2937C40.756 62.9657 39.8732 60.7371 38.879 58.5497C38.5272 57.7749 37.9979 57.1029 37.3189 56.3057H37.3206Z" />
</g>
</svg>
